<svg id="visual" viewBox="0 0 540 960" width="540" height="960" xmlns="http://www.w3.org/2000/svg" xmlns:xlink="http://www.w3.org/1999/xlink" version="1.1"><path d="M117 0L110.3 80C103.7 160 90.3 320 79.3 480C68.3 640 59.7 800 55.3 880L51 960L0 960L0 880C0 800 0 640 0 480C0 320 0 160 0 80L0 0Z" fill="#38c724"></path><path d="M32 0L34.2 80C36.3 160 40.7 320 47.2 480C53.7 640 62.3 800 66.7 880L71 960L0 960L0 880C0 800 0 640 0 480C0 320 0 160 0 80L0 0Z" fill="#40ba26"></path><path d="M28 0L27.3 80C26.7 160 25.3 320 28.3 480C31.3 640 38.7 800 42.3 880L46 960L0 960L0 880C0 800 0 640 0 480C0 320 0 160 0 80L0 0Z" fill="#45ae27"></path><path d="M71 0L63.3 80C55.7 160 40.3 320 33.3 480C26.3 640 27.7 800 28.3 880L29 960L0 960L0 880C0 800 0 640 0 480C0 320 0 160 0 80L0 0Z" fill="#48a128"></path><path d="M20 0L23.5 80C27 160 34 320 33.7 480C33.3 640 25.7 800 21.8 880L18 960L0 960L0 880C0 800 0 640 0 480C0 320 0 160 0 80L0 0Z" fill="#4a9529"></path></svg>